<svg width="800" height="500" viewBox="0 0 800 500" xmlns="http://www.w3.org/2000/svg">
  <defs>
    <linearGradient id="g" x1="0" y1="0" x2="1" y2="1">
      <stop offset="0%" stop-color="#8B5CF6"/>
      <stop offset="100%" stop-color="#EF4444"/>
    </linearGradient>
  </defs>
  <rect width="800" height="500" fill="#0B1220"/>
  <rect width="800" height="500" fill="url(#g)" opacity="0.18"/>
  <g opacity="0.5" stroke="#3B82F6" stroke-width="1">
    <line x1="0" y1="125" x2="800" y2="125"/>
    <line x1="0" y1="250" x2="800" y2="250"/>
    <line x1="0" y1="375" x2="800" y2="375"/>
  </g>
  <rect x="40" y="40" width="220" height="100" rx="16" fill="#111827" stroke="#1f2937"/>
  <rect x="280" y="40" width="220" height="100" rx="16" fill="#111827" stroke="#1f2937"/>
  <rect x="520" y="40" width="240" height="100" rx="16" fill="#111827" stroke="#1f2937"/>
  <rect x="40" y="160" width="720" height="300" rx="16" fill="#111827" stroke="#1f2937"/>
  <polyline points="70,400 160,360 250,380 340,300 430,330 520,250 610,280 700,200" fill="none" stroke="url(#g)" stroke-width="4"/>
  <text x="400" y="470" font-family="monospace" font-size="20" fill="#F9FAFB" text-anchor="middle" opacity="0.85">Road Accident Dashboard</text>
</svg>
